
<svg version="1.1" id="Layer_1" xmlns="http://www.w3.org/2000/svg"  xmlns:xlink="http://www.w3.org/1999/xlink" x="0px" y="0px"
     viewBox="0 0 961.2 432"  xml:space="preserve">
<style type="text/css">
	.st0{clip-path:url(#SVGID_00000178913925094525637620000000170278270311727754_);}
	.st1{fill:#fff;}
	.st2{fill:#fff;}
</style>
    <g>
	<g transform="translate(490.765331, 498.710275)">
	</g>
</g>
    <g>
	<g>
		<defs>
			<rect id="SVGID_1_" width="335" height="432"/>
		</defs>
        <clipPath id="SVGID_00000096055776350078886220000013109475816680413084_">
			<use xlink:href="#SVGID_1_"  style="overflow:visible;"/>
		</clipPath>
        <g style="clip-path:url(#SVGID_00000096055776350078886220000013109475816680413084_);">
			<path class="st1" d="M335.4,431.9H159.9V36.6H193L163.8,7.3L5.1,166.1v263.3H0V164L163.8,0.1l36.4,36.4h124.7v131.9L198.2,41.7
				H165v385.1h165.2V207h5.1V431.9z M205.4,41.7l114.5,114.5V41.7H205.4z"/>
		</g>
	</g>
        <g>
		<g transform="translate(232.188727, 443.210242)">
			<g>
				<path class="st2" d="M71.8-235.1H58.3l-11.8,31.8l-3.1,8.9l-3.1-8.9l-11.7-31.8H15.2l22.9,56.7h10.8L71.8-235.1z"/>
			</g>
		</g>
	</g>
        <g>
		<g transform="translate(287.748497, 443.210242)">
			<g>
				<path class="st2" d="M50.8-178.5v-56.7H38.3v56.7H50.8z"/>
			</g>
		</g>
	</g>
        <g>
		<g transform="translate(317.122447, 443.210242)">
			<g>
				<path class="st2" d="M48.1-178.5H81v-11.3H60.6v-45.3H48.1V-178.5z"/>
			</g>
		</g>
	</g>
        <g>
		<g transform="translate(360.183014, 443.210242)">
			<g>
				<path class="st2" d="M93.3-200.1H79l7.2-20.2L93.3-200.1z M114.5-178.5l-23-56.7H80.9l-23,56.7h13.4l4.1-11.4H97l4.1,11.4H114.5
					z"/>
			</g>
		</g>
	</g>
        <g>
		<g transform="translate(415.742784, 443.210242)">
			<g>
				<path class="st2" d="M93.5-198.7h8.8c9.2,0,17.3-6.8,17.3-18.2c0-10.8-8.2-18.2-17.3-18.2H81v56.7h12.5V-198.7z M100.2-225.3
					c3.7,0,7.5,3.2,7.5,8.3c0,5.4-3.8,8.4-7.5,8.4h-6.7v-16.8H100.2z"/>
			</g>
		</g>
	</g>
        <g>
		<g transform="translate(461.865665, 443.210242)">
			<g>
				<path class="st2" d="M108.1-178.5h21.1v-11.3h-13.1v-45.3h-8V-178.5z"/>
			</g>
		</g>
	</g>
        <g>
		<g transform="translate(504.926232, 443.210242)">
			<g>
				<path class="st2" d="M143.6-189.8h-20.3v-11.4h19.5v-11.3h-19.5v-11.2h20.3v-11.3h-32.8v56.7h32.8V-189.8z"/>
			</g>
		</g>
	</g>
        <g>
		<g transform="translate(549.549216, 443.210242)">
			<g>
				<path class="st2" d="M175.8-178.5l-19.7-28.3l19.7-28.3h-15.2l-12.1,19.7l-12.1-19.7h-15.2l19.7,28.3l-19.7,28.3h15.2l12.1-19.7
					l12.1,19.7H175.8z"/>
			</g>
		</g>
	</g>
        <g>
		<g transform="translate(312.452977, 498.710275)">
			<g>
				<path class="st2" d="M78.9-175.9H61.2v3.1H75c-1.1,2.9-2.8,5.3-5.3,7.1c-2.5,1.8-5.3,2.7-8.3,2.7c-3.9,0-7.2-1.3-9.9-4.1
					c-2.7-2.8-4.1-6.1-4.1-10c0-3.8,1.3-7.2,4.1-9.9c2.7-2.7,6-4.1,9.9-4.1c2.9,0,5.6,0.8,7.9,2.5c2.4,1.7,4.1,3.8,5.2,6.6h3.7
					c-1.2-3.8-3.3-6.8-6.4-9.1c-3.1-2.3-6.7-3.5-10.8-3.5c-2.2,0-4.3,0.5-6.5,1.4c-2.1,0.9-4,2.2-5.6,3.8s-2.8,3.4-3.8,5.6
					c-0.9,2.1-1.3,4.4-1.3,6.8c0,2.4,0.4,4.7,1.3,6.8c0.9,2.2,2.2,4,3.8,5.6c1.6,1.6,3.5,2.8,5.6,3.8c2.1,0.9,4.4,1.3,6.8,1.3
					c4.1,0,7.8-1.3,11.1-4c3.3-2.7,5.3-6.1,6.1-10.2L78.9-175.9z"/>
			</g>
		</g>
	</g>
        <g>
		<g transform="translate(349.615443, 498.710275)">
			<g>
				<path class="st2" d="M79.2-171.5c0-3-1.2-5.6-3.5-7.8c-2.2-2.2-4.9-3.2-8-3.2c-3.2,0-5.9,1.2-8.2,3.4s-3.3,4.9-3.3,8.1
					c0,3.2,1.1,5.9,3.3,8.1c1.1,1.1,2.2,1.8,3.7,2.4c1.4,0.6,3.1,0.9,5,0.9c1.9,0,3.8-0.6,5.8-1.8c1.9-1.2,3.3-2.9,4.2-5h-4
					c-0.8,1-1.8,1.8-2.9,2.4s-2.3,0.8-3.6,0.8c-1.9,0-3.6-0.6-5.1-1.8c-1.5-1.2-2.5-2.8-2.8-4.7h19.3V-171.5z M75.5-172.6H59.9
					c0.2-0.9,0.6-1.8,1.1-2.5c1.6-2.6,3.8-3.9,6.7-3.9c1.8,0,3.5,0.6,4.9,1.8C74.1-176,75-174.5,75.5-172.6z"/>
			</g>
		</g>
	</g>
        <g>
		<g transform="translate(377.552918, 498.710275)">
			<g>
				<path class="st2" d="M70.2-163.1c-0.8-0.6-1.5-1.6-1.8-3.1h-3.7c0.8,4.6,3.7,6.8,8.8,6.8c1.2,0,2.3-0.1,3.3-0.4
					c1.1-0.3,2-0.7,2.8-1.2c1.7-1.2,2.6-2.9,2.6-5.2c0-2.4-1.1-4.1-3.4-5.2c-1-0.5-2-0.8-3.2-1.1c-1.1-0.2-2.2-0.6-3.1-0.8
					c-1-0.3-1.8-0.7-2.5-1.2c-0.6-0.4-1-1.2-1-2.2s0.4-1.8,1.2-2.2c0.8-0.5,1.8-0.8,2.8-0.8c1.1,0,2.1,0.2,2.8,0.7
					c0.8,0.4,1.3,1.2,1.7,2.4h3.8c-0.4-2.2-1.4-3.8-2.8-4.6c-1.5-0.9-3.2-1.3-5.3-1.3c-2.1,0-4,0.6-5.5,1.7c-1.5,1.2-2.3,2.8-2.3,5
					c0,1.1,0.3,2,0.8,2.8c0.6,0.8,1.5,1.5,2.6,2c1,0.4,2,0.8,3.2,1.1c1.1,0.2,2.1,0.6,3.1,0.8c2.2,0.8,3.4,1.9,3.4,3.2
					c0,2.4-1.6,3.6-4.8,3.6C72.2-162.2,71.1-162.5,70.2-163.1z"/>
			</g>
		</g>
	</g>
        <g>
		<g transform="translate(400.127899, 498.710275)">
			<g>
				<path class="st2" d="M71.8-178.7h5.5v18.8h3.5v-18.8h5.4v-3.2h-5.4v-8.6h-3.5v8.6h-5.5V-178.7z"/>
			</g>
		</g>
	</g>
        <g>
		<g transform="translate(419.965385, 498.710275)">
			<g>
				<path class="st2" d="M84.7-189.6c-0.5-0.4-1-0.7-1.6-0.7c-0.6,0-1.1,0.2-1.5,0.7c-0.5,0.4-0.7,1-0.7,1.6s0.2,1.2,0.7,1.6
					c0.4,0.4,0.9,0.6,1.5,0.6c0.6,0,1.2-0.2,1.6-0.6c0.4-0.4,0.6-1,0.6-1.6S85.1-189.1,84.7-189.6z M84.9-160v-22h-3.5v22H84.9z"/>
			</g>
		</g>
	</g>
        <g>
		<g transform="translate(436.05287, 498.710275)">
			<g>
				<path class="st2" d="M104.5-171.1c0,2.2-0.8,4-2.3,5.6c-1.6,1.6-3.5,2.3-5.7,2.3c-2.2,0-4.1-0.8-5.7-2.3
					c-1.6-1.6-2.3-3.4-2.3-5.6c0-2.2,0.8-4.1,2.3-5.7c1.6-1.6,3.5-2.3,5.7-2.3c2.2,0,4.1,0.8,5.7,2.3
					C103.7-175.1,104.5-173.3,104.5-171.1z M108-171.1c0-3.2-1.2-5.8-3.4-8.1c-2.3-2.2-4.9-3.4-8.1-3.4c-3.2,0-5.9,1.2-8.2,3.4
					c-2.3,2.2-3.3,4.9-3.3,8.1c0,3.2,1.1,5.9,3.3,8.1c2.2,2.2,5,3.3,8.2,3.3c3.1,0,5.8-1.1,8.1-3.3C106.9-165.2,108-167.9,108-171.1
					z"/>
			</g>
		</g>
	</g>
        <g>
		<g transform="translate(464.177846, 498.710275)">
			<g>
				<path class="st2" d="M111.1-160h3.5v-13.8c0-2.6-0.7-4.6-2-6.2c-0.7-0.8-1.5-1.4-2.4-1.8c-1-0.4-2.2-0.7-3.8-0.7
					c-1.6,0-2.9,0.4-4.1,1.2c-1.2,0.8-2.1,1.8-2.8,3v-3.8h-3.5v22h3.5v-9.2c0-2.8,0.5-5,1.6-6.7c0.6-0.9,1.3-1.7,2.3-2.2
					c0.9-0.6,2.2-0.8,3.7-0.8s2.6,0.5,3.2,1.5c0.7,1,1,2.2,1,3.7V-160z"/>
			</g>
		</g>
	</g>
        <g>
		<g transform="translate(508.39033, 498.710275)">
			<g>
				<path class="st2" d="M114.2-189.6c-0.5-0.4-1-0.7-1.6-0.7c-0.6,0-1.1,0.2-1.5,0.7c-0.5,0.4-0.7,1-0.7,1.6s0.2,1.2,0.7,1.6
					c0.4,0.4,0.9,0.6,1.5,0.6c0.6,0,1.2-0.2,1.6-0.6c0.4-0.4,0.6-1,0.6-1.6S114.6-189.1,114.2-189.6z M114.4-160v-22h-3.5v22H114.4z
					"/>
			</g>
		</g>
	</g>
        <g>
		<g transform="translate(524.477816, 498.710275)">
			<g>
				<path class="st2" d="M143.9-160.1h3.5v-13.8c0-2.5-0.7-4.5-1.8-6.1c-0.6-0.8-1.4-1.4-2.3-1.9c-0.9-0.5-2.2-0.8-3.7-0.8
					c-1.6,0-2.9,0.4-4.1,1.2c-1.1,0.8-1.9,1.8-2.6,2.9c-0.2-0.5-0.6-1-0.9-1.5c-0.6-0.8-1.4-1.4-2.3-1.9c-0.9-0.5-2.2-0.8-3.7-0.8
					c-1.6,0-2.9,0.4-4.1,1.2c-1,0.8-1.8,1.7-2.4,2.8v-3.5H116v22h3.5v-11.2c0.2-1.8,0.6-3.3,1.3-4.6c0.5-0.9,1.2-1.7,2.2-2.3
					c0.9-0.6,1.8-0.9,2.9-0.9c1,0,1.8,0.2,2.3,0.5c1.4,0.9,2.2,2.5,2.2,4.8v13.8h3.5v-13.8c0-0.2,0-0.6,0-0.8
					c0.1-0.4,0.3-0.8,0.6-1.2c0.5-0.9,1.2-1.7,2.2-2.3c0.9-0.6,1.8-0.9,2.9-0.9c1,0,1.8,0.2,2.3,0.5c1.4,0.9,2.2,2.5,2.2,4.8V-160.1
					z"/>
			</g>
		</g>
	</g>
        <g>
		<g transform="translate(560.590286, 498.710275)">
			<g>
				<path class="st2" d="M155.9-160.1h3.5v-13.8c0-2.5-0.7-4.5-1.8-6.1c-0.6-0.8-1.4-1.4-2.3-1.9c-0.9-0.5-2.2-0.8-3.7-0.8
					c-1.6,0-2.9,0.4-4.1,1.2c-1.1,0.8-1.9,1.8-2.6,2.9c-0.2-0.5-0.6-1-0.9-1.5c-0.6-0.8-1.4-1.4-2.3-1.9c-0.9-0.5-2.2-0.8-3.7-0.8
					c-1.6,0-2.9,0.4-4.1,1.2c-1,0.8-1.8,1.7-2.4,2.8v-3.5H128v22h3.5v-11.2c0.2-1.8,0.6-3.3,1.3-4.6c0.5-0.9,1.2-1.7,2.2-2.3
					c0.9-0.6,1.8-0.9,2.9-0.9c1,0,1.8,0.2,2.3,0.5c1.4,0.9,2.2,2.5,2.2,4.8v13.8h3.5v-13.8c0-0.2,0-0.6,0-0.8
					c0.1-0.4,0.3-0.8,0.6-1.2c0.5-0.9,1.2-1.7,2.2-2.3c0.9-0.6,1.8-0.9,2.9-0.9c1,0,1.8,0.2,2.3,0.5c1.4,0.9,2.2,2.5,2.2,4.8V-160.1
					z"/>
			</g>
		</g>
	</g>
        <g>
		<g transform="translate(596.702756, 498.710275)">
			<g>
				<path class="st2" d="M158.1-171.1c0,2.2-0.8,4-2.3,5.6c-1.6,1.6-3.5,2.3-5.7,2.3c-2.2,0-4.1-0.8-5.7-2.3
					c-1.6-1.6-2.3-3.4-2.3-5.6c0-2.2,0.8-4.1,2.3-5.7c1.6-1.6,3.5-2.3,5.7-2.3c2.2,0,4.1,0.8,5.7,2.3
					C157.3-175.1,158.1-173.3,158.1-171.1z M161.6-171.1c0-3.2-1.2-5.8-3.4-8.1s-4.9-3.4-8.1-3.4c-3.2,0-5.9,1.2-8.2,3.4
					s-3.3,4.9-3.3,8.1c0,3.2,1.1,5.9,3.3,8.1c2.2,2.2,5,3.3,8.2,3.3c3.1,0,5.8-1.1,8.1-3.3C160.4-165.2,161.6-167.9,161.6-171.1z"/>
			</g>
		</g>
	</g>
        <g>
		<g transform="translate(624.827732, 498.710275)">
			<g>
				<path class="st2" d="M152.9-160v-3.8c0.2,0.3,0.4,0.6,0.6,0.8c2.1,2.3,4.7,3.5,7.7,3.5c3,0,5.5-1.2,7.6-3.5c2-2.2,3.1-4.9,3.1-8
					c0-3.1-1.1-5.7-3.1-8c-2.1-2.3-4.6-3.5-7.6-3.5c-3.1,0-5.6,1.2-7.7,3.5c-0.2,0.2-0.4,0.5-0.6,0.8v-19.3h-3.5v37.5H152.9z
					 M168.4-171c0,2.2-0.8,4.1-2.2,5.6c-1.5,1.6-3.3,2.4-5.5,2.4c-2.2,0-4.1-0.8-5.6-2.4c-1.5-1.5-2.2-3.4-2.2-5.6
					c0-2.1,0.7-4,2.2-5.6c1.5-1.6,3.4-2.4,5.6-2.4c2.2,0,4,0.8,5.5,2.4C167.7-175,168.4-173.1,168.4-171z"/>
			</g>
		</g>
	</g>
        <g>
		<g transform="translate(653.702707, 498.710275)">
			<g>
				<path class="st2" d="M162.6-189.6c-0.5-0.4-1-0.7-1.6-0.7c-0.6,0-1.1,0.2-1.5,0.7c-0.5,0.4-0.7,1-0.7,1.6s0.2,1.2,0.7,1.6
					c0.4,0.4,0.9,0.6,1.5,0.6c0.6,0,1.2-0.2,1.6-0.6c0.4-0.4,0.6-1,0.6-1.6S163-189.1,162.6-189.6z M162.8-160v-22h-3.5v22H162.8z"
                />
			</g>
		</g>
	</g>
        <g>
		<g transform="translate(669.790193, 498.710275)">
			<g>
				<path class="st2" d="M167.9-160v-37.5h-3.5v37.5H167.9z"/>
			</g>
		</g>
	</g>
        <g>
		<g transform="translate(685.540192, 498.710275)">
			<g>
				<path class="st2" d="M173.2-189.6c-0.5-0.4-1-0.7-1.6-0.7c-0.6,0-1.1,0.2-1.5,0.7c-0.5,0.4-0.7,1-0.7,1.6s0.2,1.2,0.7,1.6
					c0.4,0.4,0.9,0.6,1.5,0.6c0.6,0,1.2-0.2,1.6-0.6c0.4-0.4,0.6-1,0.6-1.6S173.6-189.1,173.2-189.6z M173.4-160v-22h-3.5v22H173.4z
					"/>
			</g>
		</g>
	</g>
        <g>
		<g transform="translate(701.6277, 498.710275)">
			<g>
				<path class="st2" d="M196.5-171.5c0-3-1.2-5.6-3.5-7.8c-2.2-2.2-4.9-3.2-8-3.2c-3.2,0-5.9,1.2-8.2,3.4s-3.3,4.9-3.3,8.1
					c0,3.2,1.1,5.9,3.3,8.1c1.1,1.1,2.2,1.8,3.7,2.4c1.4,0.6,3.1,0.9,5,0.9c1.9,0,3.8-0.6,5.8-1.8c1.9-1.2,3.3-2.9,4.2-5h-4
					c-0.8,1-1.8,1.8-2.9,2.4s-2.3,0.8-3.6,0.8c-1.9,0-3.6-0.6-5.1-1.8c-1.5-1.2-2.5-2.8-2.8-4.7h19.3V-171.5z M192.8-172.6h-15.6
					c0.2-0.9,0.6-1.8,1.1-2.5c1.6-2.6,3.8-3.9,6.8-3.9c1.8,0,3.5,0.6,4.9,1.8C191.5-176,192.4-174.5,192.8-172.6z M187-185.8
					l-4.5-7.2h-3.8l5.5,7.2H187z"/>
			</g>
		</g>
	</g>
        <g>
		<g transform="translate(729.752699, 498.710275)">
			<g>
				<path class="st2" d="M195.7-177.4v-4.6c-0.7-0.3-1.5-0.4-2.2-0.4c-2.5,0-4.3,1.4-5.4,4.1l-0.2,0.9v-4.6h-3.5v22h3.5v-11
					c0-1.8,0.4-3.4,1.2-4.8c0.4-0.8,0.9-1.4,1.6-1.9s1.5-0.8,2.3-0.8C194-178.5,194.9-178.1,195.7-177.4z"/>
			</g>
		</g>
	</g>
        <g>
		<g transform="translate(748.915189, 498.710275)">
			<g>
				<path class="st2" d="M212.3-171.5c0-3-1.2-5.6-3.5-7.8c-2.2-2.2-4.9-3.2-8-3.2c-3.2,0-5.9,1.2-8.2,3.4s-3.3,4.9-3.3,8.1
					c0,3.2,1.1,5.9,3.3,8.1c1.1,1.1,2.2,1.8,3.7,2.4c1.4,0.6,3.1,0.9,5,0.9c1.9,0,3.8-0.6,5.8-1.8c1.9-1.2,3.3-2.9,4.2-5h-4
					c-0.8,1-1.8,1.8-2.9,2.4s-2.3,0.8-3.6,0.8c-1.9,0-3.6-0.6-5.1-1.8c-1.5-1.2-2.5-2.8-2.8-4.7h19.3V-171.5z M208.6-172.6H193
					c0.2-0.9,0.6-1.8,1.1-2.5c1.6-2.6,3.8-3.9,6.8-3.9c1.8,0,3.5,0.6,4.9,1.8C207.2-176,208.1-174.5,208.6-172.6z"/>
			</g>
		</g>
	</g>
</g>
</svg>
