<?xml version="1.0" encoding="utf-8"?>
<!-- Generator: Adobe Illustrator 28.0.0, SVG Export Plug-In . SVG Version: 6.00 Build 0)  -->
<svg version="1.1" id="Layer_1" xmlns="http://www.w3.org/2000/svg" xmlns:xlink="http://www.w3.org/1999/xlink" x="0px" y="0px"
	 viewBox="0 0 478 56.9" style="enable-background:new 0 0 478 56.9;" xml:space="preserve">
<style type="text/css">
	.st0{fill:#000;}
</style>
<g>
	<g transform="translate(490.765331, 498.710275)">
	</g>
</g>
<g>
	<g>
		<g transform="translate(232.188727, 443.210242)">
			<g>
				<path class="st0" d="M-175.6-443.1h-13.5l-11.8,31.8l-3.1,8.9l-3.1-8.9l-11.7-31.8h-13.4l22.9,56.7h10.8L-175.6-443.1z"/>
			</g>
		</g>
	</g>
	<g>
		<g transform="translate(287.748497, 443.210242)">
			<g>
				<path class="st0" d="M-196.6-386.5v-56.7h-12.5v56.7H-196.6z"/>
			</g>
		</g>
	</g>
	<g>
		<g transform="translate(317.122447, 443.210242)">
			<g>
				<path class="st0" d="M-199.3-386.5h32.9v-11.3h-20.4v-45.3h-12.5V-386.5z"/>
			</g>
		</g>
	</g>
	<g>
		<g transform="translate(360.183014, 443.210242)">
			<g>
				<path class="st0" d="M-154.1-408.1h-14.3l7.2-20.2L-154.1-408.1z M-132.9-386.5l-23-56.7h-10.6l-23,56.7h13.4l4.1-11.4h21.6
					l4.1,11.4H-132.9z"/>
			</g>
		</g>
	</g>
	<g>
		<g transform="translate(415.742784, 443.210242)">
			<g>
				<path class="st0" d="M-153.9-406.7h8.8c9.2,0,17.3-6.8,17.3-18.2c0-10.8-8.2-18.2-17.3-18.2h-21.3v56.7h12.5V-406.7z
					 M-147.2-433.3c3.7,0,7.5,3.2,7.5,8.3c0,5.4-3.8,8.4-7.5,8.4h-6.7v-16.8h6.7V-433.3z"/>
			</g>
		</g>
	</g>
	<g>
		<g transform="translate(461.865665, 443.210242)">
			<g>
				<path class="st0" d="M-139.3-386.5h21.1v-11.3h-13.1v-45.3h-8V-386.5z"/>
			</g>
		</g>
	</g>
	<g>
		<g transform="translate(504.926232, 443.210242)">
			<g>
				<path class="st0" d="M-103.8-397.8h-20.3v-11.4h19.5v-11.3h-19.5v-11.2h20.3V-443h-32.8v56.7h32.8V-397.8z"/>
			</g>
		</g>
	</g>
	<g>
		<g transform="translate(549.549216, 443.210242)">
			<g>
				<path class="st0" d="M-71.6-386.5l-19.7-28.3l19.7-28.3h-15.2l-12.1,19.7l-12.1-19.7h-15.2l19.7,28.3l-19.7,28.3h15.2l12.1-19.7
					l12.1,19.7H-71.6z"/>
			</g>
		</g>
	</g>
</g>
</svg>
