<?xml version="1.0" encoding="UTF-8"?>
<svg id="Layer_1" data-name="Layer 1" xmlns="http://www.w3.org/2000/svg" version="1.1" viewBox="0 0 477.897 56.667">
  <defs>
    <style>
      .cls-1 {
        fill: #fff;
        stroke-width: 0px;
      }
    </style>
  </defs>
  <path class="cls-1" d="M56.583,0h-13.5l-11.75,31.833-3.083,8.917-3.083-8.917L13.5,0H0l22.917,56.667h10.75L56.583,0Z"/>
  <path class="cls-1" d="M91.163,56.667V0h-12.5v56.667h12.5Z"/>
  <path class="cls-1" d="M117.828,56.667h32.833v-11.333h-20.333V0h-12.5v56.667Z"/>
  <path class="cls-1" d="M206.076,35h-14.333l7.167-20.167,7.167,20.167ZM227.242,56.667L204.242,0h-10.583l-23,56.667h13.417l4.083-11.417h21.583l4.083,11.417h13.417Z"/>
  <path class="cls-1" d="M261.822,36.417h8.75c9.167,0,17.333-6.75,17.333-18.25,0-10.75-8.167-18.167-17.333-18.167h-21.25v56.667h12.5v-20.25ZM268.489,9.833c3.667,0,7.5,3.167,7.5,8.333,0,5.417-3.833,8.417-7.5,8.417h-6.667V9.833h6.667Z"/>
  <path class="cls-1" d="M310.819,56.667h32.833v-11.333h-20.333V0h-12.5v56.667Z"/>
  <path class="cls-1" d="M401.067,45.333h-20.333v-11.417h19.5v-11.333h-19.5v-11.25h20.333V0h-32.833v56.667h32.833v-11.333Z"/>
  <path class="cls-1" d="M477.897,56.667l-19.667-28.333L477.897,0h-15.25l-12.083,19.667-12.083-19.667h-15.25l19.667,28.333-19.667,28.333h15.25l12.083-19.667,12.083,19.667h15.25Z"/>
</svg>